<svg width="361" height="118" viewBox="0 0 361 118" fill="none" xmlns="http://www.w3.org/2000/svg">
<path fill-rule="evenodd" clip-rule="evenodd" d="M16 0C7.16344 0 0 7.16345 0 16V38.7529C0.298582 38.7396 0.598884 38.7328 0.900763 38.7328C11.8453 38.7328 20.7176 47.6051 20.7176 58.5496C20.7176 69.4941 11.8453 78.3664 0.900763 78.3664C0.598884 78.3664 0.298582 78.3597 0 78.3463V102C0 110.837 7.16342 118 16 118H344.305C353.142 118 360.305 110.837 360.305 102L360.305 78.3664C349.361 78.3664 340.489 69.4941 340.489 58.5496C340.489 47.6051 349.361 38.7328 360.305 38.7328L360.305 16C360.305 7.16344 353.142 0 344.305 0H16ZM125.206 18.0153V4.50382H124.206V18.0153H125.206ZM125.206 28.8244V42.3359H124.206V28.8244H125.206ZM125.206 66.6565V53.145H124.206V66.6565H125.206ZM125.206 77.4656V90.9771H124.206V77.4656H125.206ZM125.206 115.298V101.786H124.206V115.298H125.206Z" fill="#F3F3F3"/>
</svg>
