<svg width="1277" height="419" viewBox="0 0 1277 419" fill="none" xmlns="http://www.w3.org/2000/svg">
<path fill-rule="evenodd" clip-rule="evenodd" d="M0 16.7549C0 7.91832 7.16344 0.754883 16 0.754883H1261C1269.84 0.754883 1277 7.91833 1277 16.7549L1277 138.032C1238.21 138.032 1206.76 169.478 1206.76 208.267C1206.76 247.057 1238.21 278.502 1277 278.502L1277 402.972C1277 411.809 1269.84 418.972 1261 418.972H16C7.16345 418.972 0 411.809 0 402.972V278.431C1.05822 278.479 2.12252 278.502 3.19242 278.502C41.9821 278.502 73.4274 247.057 73.4274 208.267C73.4274 169.478 41.9821 138.032 3.19242 138.032C2.12252 138.032 1.05822 138.056 0 138.104V16.7549Z" fill="white"/>
</svg>
